<svg data-v-0dd9719b="" version="1.0" xmlns="http://www.w3.org/2000/svg" xmlns:xlink="http://www.w3.org/1999/xlink" width="100%" height="100%" viewBox="0 0 340.000000 250.000000" preserveAspectRatio="xMidYMid meet" color-interpolation-filters="sRGB" style="margin: auto;"> <rect data-v-0dd9719b="" x="0" y="0" width="100%" height="100%" fill="#ffffff" fill-opacity="1" class="background"></rect> <rect data-v-0dd9719b="" x="0" y="0" width="100%" height="100%" fill="url(#watermark)" fill-opacity="1" class="watermarklayer"></rect> <g data-v-0dd9719b="" fill="#168f78" class="icon-text-wrapper icon-svg-group iconsvg" transform="translate(48.44000244140625,100.88875007629395)"><g class="iconsvg-imagesvg" transform="translate(0,1.6111946105957031)"><g><rect fill="#168f78" fill-opacity="0" stroke-width="2" x="0" y="0" width="60" height="45.000112500281254" class="image-rect"></rect> <svg filter="url(#colors9812625027)" x="0" y="0" width="60" height="45.000112500281254" filtersec="colorsf4169188706" class="image-svg-svg primary" style="overflow: visible;"><svg xmlns="http://www.w3.org/2000/svg" xmlns:xlink="http://www.w3.org/1999/xlink" version="1.1" x="0px" y="0px" viewBox="0 64 512 384" enable-background="new 0 0 512 512" xml:space="preserve"><g><path d="M446.844,208.875C447.625,203.313,448,197.656,448,192c0-70.563-57.406-128-128-128   c-40.938,0-78.531,19.344-102.344,51.063C209.25,113.031,200.688,112,192,112c-61.75,0-112,50.25-112,112   c0,1.563,0.031,3.094,0.094,4.625C33.813,242.375,0,285.313,0,336c0,61.75,50.25,112,112,112h272c70.594,0,128-57.406,128-128   C512,273.344,486.344,231.188,446.844,208.875z M384,416H112c-44.188,0-80-35.813-80-80s35.813-80,80-80   c2.438,0,4.75,0.5,7.125,0.719c-4.5-10-7.125-21.031-7.125-32.719c0-44.188,35.813-80,80-80c14.438,0,27.813,4.125,39.5,10.813   C246,120.25,280.156,96,320,96c53.031,0,96,42.969,96,96c0,12.625-2.594,24.625-7.031,35.688C449.813,238.75,480,275.688,480,320   C480,373.031,437.031,416,384,416z"></path><path d="M160,288c-17.672,0-32,14.313-32,32s14.328,32,32,32s32-14.313,32-32S177.672,288,160,288z"></path><path d="M256,288c-17.672,0-32,14.313-32,32s14.328,32,32,32c17.688,0,32-14.313,32-32S273.688,288,256,288z"></path><path d="M352,288c-17.688,0-32,14.313-32,32s14.313,32,32,32s32-14.313,32-32S369.688,288,352,288z"></path></g></svg></svg> <defs><filter id="colors9812625027"><feColorMatrix type="matrix" values="0 0 0 0 0.9375  0 0 0 0 0.54296875  0 0 0 0 0.00390625  0 0 0 1 0" class="icon-fecolormatrix"></feColorMatrix></filter> <filter id="colorsf4169188706"><feColorMatrix type="matrix" values="0 0 0 0 0.99609375  0 0 0 0 0.99609375  0 0 0 0 0.99609375  0 0 0 1 0" class="icon-fecolormatrix"></feColorMatrix></filter> <filter id="colorsb5673855546"><feColorMatrix type="matrix" values="0 0 0 0 0  0 0 0 0 0  0 0 0 0 0  0 0 0 1 0" class="icon-fecolormatrix"></feColorMatrix></filter></defs></g></g> <g transform="translate(67,0)"><g data-gra="path-name" fill-rule="" class="tp-name iconsvg-namesvg" transform="translate(0,0)"><g transform="scale(1)"><g><path d="M1.58-26.6L14.26-26.6 14.26 5.94 13.1 5.94 13.1 5.98 5.29 5.98 5.29 5.94 1.58 5.94 1.58-26.6ZM17.5-26.93L32.58-26.93 34.92-12.38 31.43-12.38 31.43-10.3 18.54-10.3 18.54-12.38 15.16-12.38 17.5-26.93ZM16.42-8.46L33.62-8.46 33.62 5.94 16.42 5.94 16.42-8.46ZM6.98-21.1L6.98 0.54 8.89 0.54 8.89-21.1 6.98-21.1ZM22.43-21.49L21.53-15.73 28.51-15.73 27.58-21.49 22.43-21.49ZM22.25-3.02L22.25 0.5 27.76 0.5 27.76-3.02 22.25-3.02ZM45.25-24.66L69.8-24.66 69.8-14.83 63.94-14.83 63.94-19.22 44.35-19.22 43.67-14.83 37.84-14.83 39.85-27.11 45.65-27.11 45.25-24.66ZM51.59-16.74L57.46-16.74 57.46 5.62 46.94 5.62 46.94 0.18 51.59 0.18 51.59-16.74ZM41.65-12.64L47.34-12.64 44.35 5.62 38.7 5.62 41.65-12.64ZM61.24-12.64L66.89-12.64 69.88 5.62 64.19 5.62 61.24-12.64ZM89.17-10.69L105.95-10.69 105.95-6.01 103.36-6.01 103.36-3.35 106.56-3.35 106.56 1.37 103.75 1.37 105.12 5.83 99.32 5.83 97.96 1.37 89.93 1.37 88.6 5.83 82.62 5.83 83.92 1.37 81.18 1.37 81.18-3.35 83.34-3.35 83.34-16.78 105.95-18.04 105.95-13.14 89.17-12.2 89.17-10.69ZM90.97-27.18L96.84-27.18 96.84-25.63 106.52-25.63 106.52-18.65 100.73-18.65 100.73-20.92 87.08-20.92 87.08-18.65 81.22-18.65 81.22-25.63 90.97-25.63 90.97-27.18ZM73.44-10.91L79.24-10.91 79.24 5.83 73.44 5.83 73.44-10.91ZM79.24-19.04L79.24-13.18 73.44-13.18 73.44-19.04 79.24-19.04ZM79.24-27.18L79.24-21.35 73.44-21.35 73.44-27.18 79.24-27.18ZM89.17-6.01L89.17-3.35 97.49-3.35 97.49-6.01 89.17-6.01ZM109.48-14.58L142.24-14.58 142.24-9.14 121.64-9.14 119.45 0.4 133.06 0.4 132.23-6.3 138.85-6.3 140.4 5.83 111.46 5.83 114.84-9.14 109.48-9.14 109.48-14.58ZM111.49-27L139.97-27 139.97-21.56 111.49-21.56 111.49-27ZM154.55-14.04L169.92-14.04 169.92 0.18 171.83 0.18 171.83-16.31 152.64-16.31 152.64 5.62 146.81 5.62 146.81-20.59 150.62-20.59 149.58-26.57 155.27-26.57 156.28-20.59 159.44-20.59 159.44-27.29 165.31-27.29 165.31-20.59 168.48-20.59 169.56-26.57 175.21-26.57 174.17-20.59 177.7-20.59 177.7 5.62 169.67 5.62 169.67 1.69 154.55 1.69 154.55-14.04ZM160.2-8.57L160.2-3.74 164.3-3.74 164.3-8.57 160.2-8.57Z" transform="translate(-1.5799999237060547, 27.290000915527344)"></path></g> <!----> <!----> <!----> <!----> <!----> <!----> <!----></g></g> <g data-gra="path-slogan" fill-rule="" class="tp-slogan iconsvg-slogansvg" fill="#f08b01" transform="translate(30.849998474121094,39.27000045776367)"><!----> <!----> <g transform="scale(1, 1)"><g transform="scale(1)"><path d="M2.06-5.06L6.56-5.06L6.56-8.58L7.73-8.58L7.73 0L6.56 0L6.56-3.98L2.06-3.98L2.06 0L0.89 0L0.89-8.58L2.06-8.58L2.06-5.06ZM15.19 0L14.34-2.48L10.88-2.48L9.98 0L8.81 0L12.05-8.58L13.36-8.58L16.45 0L15.19 0ZM12.61-7.31L11.25-3.52L13.92-3.52L12.66-7.31L12.61-7.31ZM21.61-3.70L18.80-3.70L18.80 0L17.63 0L17.63-8.58L21.61-8.58Q24.47-8.58 24.47-6.28L24.47-6.28Q24.47-4.88 23.25-4.22L23.25-4.22Q24.28-3.94 24.28-2.58L24.28-2.58L24.38-1.03Q24.33-0.38 24.80-0.19L24.80-0.19L24.80 0L23.34 0Q23.20-0.61 23.16-2.16L23.16-2.16Q23.20-3.70 21.61-3.70L21.61-3.70ZM21.70-7.64L18.80-7.64L18.80-4.69L21.52-4.69Q23.25-4.69 23.25-6.19L23.25-6.19Q23.25-7.64 21.70-7.64L21.70-7.64ZM29.34-7.64L27.28-7.64L27.28-4.97L29.34-4.97Q31.17-4.92 31.13-6.38L31.13-6.38Q31.13-7.64 29.34-7.64L29.34-7.64ZM29.81 0L26.11 0L26.11-8.58L29.91-8.58Q32.20-8.48 32.30-6.42L32.30-6.42Q32.30-5.16 31.17-4.64L31.17-4.64Q32.77-4.08 32.77-2.53L32.77-2.53Q32.63-0.09 29.81 0L29.81 0ZM29.53-3.98L27.28-3.98L27.28-0.98L29.77-0.98Q31.55-1.03 31.59-2.53L31.59-2.53Q31.59-3.98 29.53-3.98L29.53-3.98ZM34.27-8.58L35.44-8.58L35.44 0L34.27 0L34.27-8.58ZM38.81-8.58L43.13-1.64L43.13-8.58L44.25-8.58L44.25 0L42.94 0L38.58-6.94L38.53-6.94L38.53 0L37.41 0L37.41-8.58L38.81-8.58ZM56.30-8.58L53.06-3.47L53.06 0L51.89 0L51.89-3.47L48.66-8.58L50.02-8.58L52.45-4.45L54.94-8.58L56.30-8.58ZM63-3.19L63-8.58L64.17-8.58L64.17-3.05Q64.03 0.05 60.66 0.14L60.66 0.14Q57.52 0.05 57.38-2.86L57.38-2.86L57.38-8.58L58.55-8.58L58.55-3.19Q58.59-0.84 60.70-0.80L60.70-0.80Q63-0.84 63-3.19L63-3.19ZM67.36-8.58L71.67-1.64L71.67-8.58L72.80-8.58L72.80 0L71.48 0L67.13-6.94L67.08-6.94L67.08 0L65.95 0L65.95-8.58L67.36-8.58ZM80.86-6.09L80.86-6.09L79.78-6.09Q79.69-7.73 77.63-7.83L77.63-7.83Q75.70-7.78 75.70-6.33L75.70-6.33Q75.70-5.39 76.73-5.25L76.73-5.25L79.17-4.69Q81.09-4.22 81.09-2.34L81.09-2.34Q81.05 0.05 77.72 0.14L77.72 0.14Q75.89 0.14 75.14-0.61L75.14-0.61Q74.20-1.31 74.25-2.77L74.25-2.77L75.38-2.77Q75.42-0.80 77.72-0.75L77.72-0.75Q79.97-0.80 80.02-2.20L80.02-2.20Q80.20-3.38 78.14-3.75L78.14-3.75L76.36-4.13Q74.53-4.64 74.53-6.19L74.53-6.19Q74.67-8.72 77.53-8.81L77.53-8.81Q80.77-8.81 80.86-6.09ZM83.72-5.06L88.22-5.06L88.22-8.58L89.39-8.58L89.39 0L88.22 0L88.22-3.98L83.72-3.98L83.72 0L82.55 0L82.55-8.58L83.72-8.58L83.72-5.06ZM96.84 0L96-2.48L92.53-2.48L91.64 0L90.47 0L93.70-8.58L95.02-8.58L98.11 0L96.84 0ZM94.27-7.31L92.91-3.52L95.58-3.52L94.31-7.31L94.27-7.31ZM100.55-8.58L104.86-1.64L104.86-8.58L105.98-8.58L105.98 0L104.67 0L100.31-6.94L100.27-6.94L100.27 0L99.14 0L99.14-8.58L100.55-8.58ZM114.19-3.61L111.56-3.61L111.56-4.59L115.31-4.59L115.31 0L114.56 0L114.28-1.08Q113.30 0.09 111.47 0.14L111.47 0.14Q109.73 0.14 108.80-0.75L108.80-0.75Q107.39-2.06 107.44-4.36L107.44-4.36Q107.77-8.63 111.52-8.81L111.52-8.81Q114.70-8.63 115.17-6L115.17-6L114.05-6Q113.58-7.78 111.47-7.83L111.47-7.83Q108.80-7.64 108.66-4.31L108.66-4.31Q108.66-0.75 111.52-0.75L111.52-0.75Q112.55-0.75 113.30-1.31L113.30-1.31Q114.23-2.06 114.19-3.61L114.19-3.61Z" transform="translate(-0.890625, 8.8125)"></path></g></g></g></g></g><defs v-gra="od"></defs></svg>